HIERARCHY
ROOT Hips
{
    OFFSET 0.000000 0.000000 0.000000
    CHANNELS 6 Xposition Yposition Zposition Zrotation Xrotation Yrotation
    JOINT Spine
    {
        OFFSET -0.000000 8.022678 0.000000
        CHANNELS 3 Zrotation Xrotation Yrotation
        JOINT Spine1
        {
            OFFSET -0.000000 22.645252 0.000000
            CHANNELS 3 Zrotation Xrotation Yrotation
            JOINT Neck
            {
                OFFSET -0.000000 22.552252 2.050205
                CHANNELS 3 Zrotation Xrotation Yrotation
                JOINT Head
                {
                    OFFSET -0.000000 13.697254 -1.956751
                    CHANNELS 3 Zrotation Xrotation Yrotation
                    End Site
                    {
                        OFFSET -0.000000 24.459385 0.000000
                    }
                }
            }
            JOINT LeftShoulder
            {
                OFFSET 3.970073 20.470064 -0.180938
                CHANNELS 3 Zrotation Xrotation Yrotation
                JOINT LeftArm
                {
                    OFFSET 11.806412 0.000000 0.000000
                    CHANNELS 3 Zrotation Xrotation Yrotation
                    JOINT LeftForeArm
                    {
                        OFFSET 36.446327 0.000000 0.000000
                        CHANNELS 3 Zrotation Xrotation Yrotation
                        JOINT LeftHand
                        {
                            OFFSET 19.624075 0.000000 0.000000
                            CHANNELS 3 Zrotation Xrotation Yrotation
                            End Site
                            {
                                OFFSET 14.675631 0.000000 0.000000
                            }
                        }
                    }
                }
            }
            JOINT RightShoulder
            {
                OFFSET -3.853871 20.470064 -0.180938
                CHANNELS 3 Zrotation Xrotation Yrotation
                JOINT RightArm
                {
                    OFFSET -11.806412 0.000000 0.000000
                    CHANNELS 3 Zrotation Xrotation Yrotation
                    JOINT RightForeArm
                    {
                        OFFSET -36.446327 0.000000 0.000000
                        CHANNELS 3 Zrotation Xrotation Yrotation
                        JOINT RightHand
                        {
                            OFFSET -19.624075 0.000000 0.000000
                            CHANNELS 3 Zrotation Xrotation Yrotation
                            End Site
                            {
                                OFFSET -14.675631 0.000000 0.000000
                            }
                        }
                    }
                }
            }
        }
    }
    JOINT LeftUpLeg
    {
        OFFSET 9.783753 0.000000 0.000000
        CHANNELS 3 Zrotation Xrotation Yrotation
        JOINT LeftLeg
        {
            OFFSET -0.000000 -49.169243 0.000000
            CHANNELS 3 Zrotation Xrotation Yrotation
            JOINT LeftFoot
            {
                OFFSET -0.000000 -31.003439 0.000000
                CHANNELS 3 Zrotation Xrotation Yrotation
                JOINT LeftToeBase
                {
                    OFFSET -0.000000 -6.359439 14.675631
                    CHANNELS 3 Zrotation Xrotation Yrotation
                    End Site
                    {
                        OFFSET -0.000000 0.000000 3.913501
                    }
                }
            }
        }
    }
    JOINT RightUpLeg
    {
        OFFSET -9.783753 0.000000 0.000000
        CHANNELS 3 Zrotation Xrotation Yrotation
        JOINT RightLeg
        {
            OFFSET -0.000000 -49.169243 0.000000
            CHANNELS 3 Zrotation Xrotation Yrotation
            JOINT RightFoot
            {
                OFFSET -0.000000 -31.003439 0.000000
                CHANNELS 3 Zrotation Xrotation Yrotation
                JOINT RightToeBase
                {
                    OFFSET -0.000000 -6.359439 14.675631
                    CHANNELS 3 Zrotation Xrotation Yrotation
                    End Site
                    {
                        OFFSET -0.000000 0.000000 3.913501
                    }
                }
            }
        }
    }
}
MOTION
Frames:    4
Frame Time:    0.004000
0.112822    91.861069    15.852430    -1.489842    -3.468813    170.023499    -5.161368    -5.320067    -0.715037    8.949219    0.710263    -0.530733    -8.741080    13.664357    -11.925438    16.192673    -4.157262    -9.337534    1.861751    9.637854    -4.432085    -71.426552    38.166782    -10.986553    -0.485184    -11.579269    -12.383953    -5.145388    -11.723524    2.107062    -9.508970    8.135215    0.796874    66.967636    34.594170    10.647387    0.556428    -12.953958    12.070240    3.813475    -12.743955    8.233835    2.468607    -6.653681    -4.493222    -1.869074    11.252933    -10.988031    1.461353    -10.348061    12.941519    0.000000    0.000000    0.000000    -10.295695    -5.134683    18.394678    10.214231    6.087887    2.348764    -1.721730    -10.966430    -13.410830    0.000000    0.000000    0.000000    
-0.013702    91.864784    15.854449    -1.496291    -3.522941    169.653275    -5.236517    -5.389960    -0.693400    8.928034    0.844888    -0.512832    -8.554475    13.515337    -12.004552    16.120153    -4.155145    -9.426295    2.013348    9.636363    -4.474025    -71.386505    38.148228    -11.162148    -0.469268    -11.569796    -12.333453    -5.028583    -11.707038    2.036782    -9.467880    8.267461    0.727850    66.910522    34.396599    10.851776    0.607041    -12.926514    12.081314    3.643863    -12.733094    8.252851    2.458005    -6.637033    -4.138254    -1.921817    11.186210    -11.013701    1.567120    -10.351324    12.977606    0.000000    0.000000    0.000000    -10.321837    -5.325053    18.475895    10.158845    6.153729    2.441393    -1.570552    -10.900168    -13.286584    0.000000    0.000000    0.000000    
-0.131118    91.869781    15.868566    -1.507061    -3.598881    169.301468    -5.362804    -5.443523    -0.688192    9.033423    0.896500    -0.504039    -8.584484    13.523088    -12.074205    16.257656    -4.252915    -9.460996    2.068366    9.615406    -4.571782    -71.386269    38.116352    -11.217192    -0.459620    -11.537024    -12.292087    -4.867646    -11.676954    2.196874    -9.482364    8.185667    0.733418    67.024803    34.308647    10.727756    0.628982    -12.955772    12.136804    3.707549    -12.759562    8.280611    2.461197    -6.650264    -3.798474    -1.995104    11.112518    -11.047131    1.678019    -10.328713    13.027312    0.000000    0.000000    0.000000    -10.341684    -5.531075    18.521778    10.095719    6.196733    2.518530    -1.403672    -10.814729    -13.131322    0.000000    0.000000    0.000000    
-0.264880    91.883270    15.881099    -1.556780    -3.681805    168.932785    -5.500560    -5.542637    -0.683999    9.091125    1.027119    -0.499319    -8.533920    13.436280    -12.154084    16.286325    -4.315150    -9.525259    2.099974    9.604084    -4.610959    -71.259064    38.209866    -11.368624    -0.403504    -11.620839    -12.271138    -5.139674    -11.756364    2.117526    -9.476931    8.171574    0.695898    67.052589    34.276215    10.755258    0.601883    -12.960770    12.182701    3.762085    -12.759665    8.233752    2.407978    -6.667696    -3.435968    -2.037502    11.017148    -11.071555    1.731996    -10.263473    13.066054    0.000000    0.000000    0.000000    -10.415724    -5.758909    18.559452    10.051593    6.238262    2.622160    -1.236967    -10.709209    -12.981084    0.000000    0.000000    0.000000    
